<svg id="ezQ1V2JkubI1" xmlns="http://www.w3.org/2000/svg" xmlns:xlink="http://www.w3.org/1999/xlink" viewBox="0 0 1920 1080" shape-rendering="geometricPrecision" text-rendering="geometricPrecision"><path d="M1919.999992,0L0,0L184.845203,624.013562l55.998325-162.904224l101.81514,325.808447L449.564565,466.200094q66.179839,167.99498,61.089082,162.904223t157.813467-391.988289L790.645281,710.556426l15.27227-170.556431l71.270597,414.912764l10.181514-147.631953l40.726056,55.998326l86.542868-422.53283l30.544542,99.253688L1177.54281,181.117694l35.635299,162.904222l76.361353-40.726057l91.633626,137.450438l106.905896,61.089082l71.270598-61.089084l71.270598-122.178169l76.361355,25.453784l55.998325-137.45044l55.998327,264.719362l35.635298-45.816813l65.386507,229.084063" transform="matrix(1.149308 0 0 1-143.335671 0.000022)" fill="#d7adad" stroke="#d7adad" stroke-width="3.84"/><path d="" fill="none" stroke="#3f5787" stroke-width="3.84"/></svg>